<?xml version="1.0" encoding="UTF-8"?>
<svg width="30px" height="30px" viewBox="0 0 30 30" version="1.1" xmlns="http://www.w3.org/2000/svg" xmlns:xlink="http://www.w3.org/1999/xlink">
    <!-- Generator: Sketch 49.3 (51167) - http://www.bohemiancoding.com/sketch -->
    <title>collaborate</title>
    <desc>Created with Sketch.</desc>
    <defs></defs>
    <g id="Page-1" stroke="none" stroke-width="1" fill="none" fill-rule="evenodd">
        <g id="Info-Center_Trading" transform="translate(-1209.000000, -164.000000)" fill="#F40830" fill-rule="nonzero">
            <g id="Group-4" transform="translate(0.000000, 109.000000)">
                <g id="Group-34" transform="translate(301.000000, 0.000000)">
                    <g id="Group-6" transform="translate(791.000000, 0.000000)">
                        <g id="Group" transform="translate(102.000000, 40.000000)">
                            <path d="M33.7550848,31.5667302 C33.8694906,31.7585152 34.0059411,31.951576 34.1060994,32.1620718 C34.3988478,32.7770455 34.1431714,33.1363767 33.4674399,33.0722357 C33.3246099,33.0586988 33.1831266,33.0317667 33.0308691,33.0095122 C33.0566577,33.2525426 33.0688214,33.4968257 33.0673031,33.7412154 C33.080454,33.9014948 33.0085907,34.0569325 32.8779611,34.1507557 C32.7473314,34.2445789 32.5770657,34.2630475 32.4293525,34.1994159 C32.2713463,34.1528439 32.1191503,34.0884545 31.9756987,34.0074891 C31.8325142,33.9313704 31.7013799,33.8326429 31.5592587,33.7401523 C31.4997466,34.0041165 31.4250291,34.2644217 31.3354798,34.5197664 C31.1124806,35.0590467 30.7285052,35.1221954 30.3360238,34.6969514 C30.2115526,34.5622908 30.1087008,34.4071476 29.9947911,34.2598005 C29.8861597,34.4163327 29.7695933,34.5672079 29.6455486,34.7118349 C29.2634162,35.1158167 28.8744081,35.0491243 28.6620414,34.5317441 C28.5729131,34.2754817 28.4990647,34.0141593 28.4408852,33.7491533 C28.22944,33.8728993 28.0272096,34.0145765 27.8064787,34.116068 C27.2128302,34.3890038 26.8528134,34.1245021 26.913844,33.4698389 C26.9271701,33.326886 26.96006,33.185705 26.9889095,33.0144025 C26.8122681,33.0369405 26.6541272,33.0640143 26.4948522,33.0762047 C25.8595951,33.1258165 25.6022884,32.7609571 25.8755439,32.1824126 C25.9795299,31.962278 26.1236358,31.7609958 26.2473274,31.5545398 C25.983332,31.4956581 25.7229863,31.4214695 25.4676099,31.3323498 C24.9388197,31.1149084 24.8792777,30.7114936 25.3060667,30.3253011 C25.4345074,30.2092095 25.5813778,30.1135296 25.7322886,29.9992807 C25.5742895,29.8760308 25.4208978,29.7736179 25.2879205,29.6493758 C24.8799865,29.2681445 24.9449866,28.8764239 25.4637822,28.663164 C25.718844,28.5736539 25.9789074,28.4990861 26.2426491,28.43984 C26.1043124,28.2249662 25.9780623,28.0025493 25.8644861,27.7736244 C25.6178827,27.2057819 25.8814981,26.8561604 26.5005229,26.9111587 C26.6442744,26.923916 26.7865374,26.9536831 26.9745202,26.9825288 C26.9517666,26.8162584 26.9258233,26.6697618 26.9125681,26.5218478 C26.8538766,25.8669011 27.2167288,25.6034624 27.8118658,25.8791623 C28.0254375,25.9783859 28.2208631,26.1160941 28.4418066,26.2464314 C28.5056017,26.0059559 28.5496203,25.7640629 28.6335463,25.5369117 C28.8586011,24.9280332 29.2737651,24.8556708 29.7001288,25.3436383 C29.8017047,25.4599426 29.8870484,25.5904216 29.9947911,25.7344376 C30.1046604,25.5897837 30.200353,25.4448464 30.3147588,25.316281 C30.7095794,24.8736019 31.1185766,24.935475 31.339024,25.4822679 C31.4251426,25.7342917 31.4970371,25.9909526 31.5543678,26.2510382 C31.7146351,26.1506806 31.8814947,26.0361482 32.0576399,25.9382712 C32.2828059,25.7607411 32.5885323,25.7244881 32.8489822,25.844434 C33.1384701,26.0169414 33.0866543,26.3231879 33.0638298,26.6024315 C33.054615,26.7151212 33.0300893,26.8265351 33.0042169,26.9918133 C33.1437154,26.9664404 33.2671943,26.9351141 33.3925162,26.9231364 C33.660101,26.8976926 33.9270479,26.8664372 34.125805,27.1237098 C34.324562,27.3809824 34.2037767,27.6198278 34.0966719,27.8506644 C33.9906625,28.0526001 33.8737448,28.2486201 33.746437,28.4378556 C33.9894962,28.5071703 34.2311377,28.5593336 34.4603746,28.644595 C35.0761388,28.8738015 35.1459589,29.2638212 34.6541699,29.7000507 C34.5390552,29.8021801 34.406078,29.8843231 34.2667921,29.9863108 C34.4440366,30.1210656 34.6137948,30.2653906 34.7753096,30.4186422 C35.0871966,30.745584 35.0433906,31.0753607 34.6391426,31.2729574 C34.3516223,31.3912498 34.056224,31.4894107 33.7550848,31.5667302 Z M35.1999012,42.5551064 C34.9755111,43.2575676 34.5814266,43.8939052 34.0525115,44.4078238 C33.8168291,44.6235195 33.546536,44.7980367 33.2529468,44.92407 C33.0749919,45.0244679 32.8576822,45.0253565 32.6789119,44.9264174 C32.5001417,44.8274782 32.3855148,44.6428815 32.3761191,44.4387957 C32.3308869,44.1130398 32.3441612,43.781827 32.4153176,43.4607345 C32.5637929,42.8218504 32.8657492,42.2287701 33.2950515,41.7328263 C34.0811878,40.7450722 35.3968337,40.3471596 36.5987143,40.7336446 C37.2205742,40.8614257 37.7983872,41.1490602 38.2751776,41.568186 C38.5600598,41.7582999 38.7043414,42.0997807 38.6420701,42.4365342 C38.5353197,42.8155684 38.1923858,42.9311639 37.8507987,43.0011165 C37.0798232,43.1311574 36.2876235,43.0316835 35.5727479,42.7150691 C35.4574915,42.6704184 35.3454248,42.6178299 35.1999012,42.5551064 Z M42.6425168,35.2339637 C42.8070768,35.7665655 42.9349661,36.3098098 43.0252871,36.8598842 C43.0642562,37.2996238 43.0151454,37.7427189 42.8808268,38.1632571 C42.7042562,38.7287608 42.2116874,38.8294727 41.7550566,38.4446269 C41.2127015,37.9388583 40.8499233,37.270175 40.7216474,36.5398172 C40.4882124,35.6477827 40.6384832,34.6987869 41.1360952,33.922481 C41.6337073,33.1461751 42.4333182,32.6132959 43.3414271,32.4527969 C43.7184234,32.3530357 44.111958,32.3321648 44.4973937,32.3914909 C44.6770257,32.4140491 44.8354945,32.519999 44.9249729,32.677364 C45.0144512,32.834729 45.0244564,33.0250734 44.9519689,33.1909497 C44.8044916,33.6718899 44.4933011,34.0860452 44.0723768,34.3615756 C43.611422,34.6874543 43.1083625,34.9531609 42.6425168,35.2339637 Z M24.7948555,42.5543268 C24.1291104,42.8996961 23.3870586,43.0717598 22.6372356,43.0546264 C22.3182691,43.0378314 22.0048653,42.9642191 21.7117819,42.8372558 C21.5252765,42.7712889 21.3833781,42.6174972 21.3326198,42.4263141 C21.2818616,42.2351311 21.3287913,42.0312196 21.4580193,41.881449 C21.5519568,41.7324509 21.6700854,41.6001577 21.8075454,41.4900119 C22.6296218,40.8390779 23.6717924,40.5315937 24.7156079,40.6320112 C25.3958256,40.6840371 26.0305379,40.9936828 26.4901739,41.4977372 C27.1561206,42.1627062 27.5690007,43.0392675 27.6575527,43.9761302 C27.6708484,44.1718552 27.6479977,44.3683555 27.5901426,44.5558087 C27.5557998,44.7170863 27.4512461,44.8546163 27.3050195,44.9308596 C27.1587929,45.0071029 26.9861603,45.0140992 26.8342419,44.949939 C26.5362813,44.8369565 26.25934,44.6748958 26.0149007,44.4704764 C25.4464663,43.9504024 25.0255767,43.2893716 24.7948555,42.5543268 Z M17.436733,24.7913172 C17.0579443,24.0551609 16.8910745,23.2282835 16.9547259,22.4028633 C16.9718934,22.2178213 17.0132397,22.0358265 17.0777086,21.8615277 C17.1272725,21.6071972 17.3187144,21.4040456 17.5696834,21.3394609 C17.8206524,21.2748762 18.0863958,21.3603751 18.252601,21.5591792 C18.7610381,22.0389223 19.1090295,22.6638526 19.2490799,23.3486769 C19.5171994,24.3612706 19.3081782,25.4408553 18.6814905,26.280249 C18.0548028,27.1196426 17.0790591,27.6269474 16.0318948,27.6578163 C15.6795056,27.7562982 15.3033965,27.6208475 15.0947454,27.3203143 C14.9434793,26.9895034 15.0084559,26.5999758 15.2589113,26.3361579 C15.7320599,25.6882853 16.3842739,25.1928094 17.1353368,24.9106691 L17.436733,24.7913172 Z M42.5816988,24.7358229 C43.062685,24.9897815 43.5301529,25.2685502 43.9822131,25.5710021 C44.2888094,25.815884 44.558568,26.1036042 44.7831955,26.4253174 C45.0114992,26.6694764 45.0594584,27.031686 44.9025632,27.3268347 C44.716145,27.5866962 44.3983701,27.71824 44.0827966,27.6661794 C43.017995,27.6751941 42.0099533,27.1869708 41.3569463,26.3459727 C40.7039393,25.5049745 40.4807441,24.4075057 40.7534032,23.3783022 C40.9435064,22.8463943 41.1804048,22.3323878 41.4613157,21.8423208 C41.4815921,21.8059004 41.5079649,21.7732265 41.5392875,21.7457196 C41.7862452,21.5031179 42.0425596,21.2510899 42.4273147,21.3522271 C42.8286566,21.4578294 42.9371082,21.8129081 43.0061486,22.1637344 C43.1392792,22.9870635 43.0148048,23.8314123 42.6497469,24.5813176 L42.5816988,24.7358229 Z M24.7170256,17.3991587 C25.0265705,16.858508 25.3637116,16.3341278 25.7271141,15.8280947 C25.9783823,15.5271836 26.2898588,15.282188 26.64151,15.1088653 C27.176467,14.8341577 27.6076508,15.121977 27.6568438,15.7236264 C27.7212265,16.8385402 27.2394697,17.9151476 26.3651938,18.6101448 C25.4909179,19.3051421 24.3332847,19.5317522 23.2614349,19.2177148 C22.8315148,19.0724689 22.4164894,18.8864026 22.0220386,18.6620626 C21.8612965,18.5672994 21.7185839,18.4448569 21.600495,18.3003926 C21.1287659,17.7793269 21.2633735,17.2182174 21.9492413,17.0588218 C22.4149169,16.9778204 22.8888153,16.9546344 23.3601755,16.9897905 C23.6076599,17.0120051 23.8509292,17.068045 24.0831862,17.1563444 C24.3172432,17.2292029 24.5421562,17.3310488 24.7170256,17.3991587 Z M17.4075999,35.2531705 C16.9352544,35.0133853 16.4791133,34.7429426 16.042102,34.4435768 C15.6912379,34.1720249 15.3924217,33.8392239 15.1600999,33.4612631 C14.7878911,32.8454389 15.088295,32.3507384 15.8165511,32.3237354 C16.4627124,32.3288005 17.09436,32.5158796 17.6390342,32.8635118 C18.5172754,33.2809741 19.1436247,34.0923346 19.3250669,35.0475651 C19.5420567,36.2309915 19.1848737,37.4471881 18.3623994,38.3254168 C17.8321915,38.9044574 17.2206095,38.7435734 17.0270978,37.9843711 C16.843805,37.1479122 16.9422172,36.2743302 17.3070164,35.4995995 L17.4041266,35.2710308 L17.4075999,35.2531705 Z M35.2590179,17.4134044 C35.9155963,17.0756655 36.6492026,16.9157831 37.3867959,16.9496758 C37.6949746,16.9674622 37.997892,17.0374657 38.2826204,17.1566988 C38.4670584,17.225777 38.6065423,17.3799924 38.6568021,17.5703993 C38.7070619,17.7608061 38.6618561,17.9637593 38.5355324,18.1148444 C38.4661676,18.2303232 38.3795379,18.3345089 38.2786509,18.4237842 C37.391988,19.2047081 36.1958418,19.535397 35.0338923,19.3208364 C33.7885593,19.0350743 32.8096344,18.0735952 32.5016536,16.8337259 C32.3217568,16.4337986 32.276247,15.98637 32.3719369,15.5584191 C32.3939469,15.3525245 32.5165445,15.1709062 32.6992847,15.0734804 C32.8820248,14.9760546 33.1011683,14.9754777 33.284419,15.07194 C33.7622439,15.2582455 34.1677594,15.5927893 34.4414488,16.026471 C34.737387,16.4586607 34.9769729,16.9294767 35.2590179,17.4134044 Z M37.3552528,37.4707472 C37.5997297,36.7376974 37.8081269,36.0612051 38.0563606,35.3996671 C38.1489928,35.1915439 38.2862201,35.006308 38.4583404,34.8570557 C38.7715741,34.5611568 39.1361983,34.6029724 39.2843446,35.002064 C39.4547406,35.4430136 39.5515561,35.9089496 39.5709262,36.3812721 C39.5929785,37.2116803 39.4287132,38.0364818 39.090195,38.7950988 C39.0522376,38.8976422 38.9811439,38.9845895 38.8881773,39.0421656 C37.813437,39.5481544 36.604552,39.6955369 35.4396997,39.4625902 C35.1159752,39.3920706 34.7544699,39.2966033 34.6921634,38.9084264 C34.6296442,38.5186194 34.951951,38.3234324 35.2308772,38.1468852 C35.8829157,37.7731541 36.6071258,37.5426553 37.3552528,37.4707472 Z M29.9510561,40.5052885 C30.492747,40.2025857 30.9824805,39.8900313 31.5058126,39.651115 C31.8271644,39.5118327 32.1713081,39.432564 32.5212174,39.4172308 C32.7032693,39.3811671 32.8896879,39.4541603 32.9988334,39.604244 C33.1079789,39.7543277 33.1199571,39.9541458 33.0295223,40.1161903 C32.9105613,40.4242063 32.7430468,40.7111924 32.5333384,40.966253 C31.9363427,41.6731431 31.1854037,42.2339816 30.3380794,42.6057814 C30.1256472,42.7136835 29.8743484,42.7131827 29.662348,42.6044348 C28.7564963,42.2090699 27.960844,41.5986154 27.3444607,40.8260643 C27.2174738,40.6626583 27.1103952,40.4847173 27.0254854,40.2959976 C26.7604523,39.7026404 27.0400873,39.3168024 27.684701,39.4207037 C28.0388862,39.4908478 28.3845956,39.5984979 28.7159836,39.7418338 C28.9431208,39.8420181 29.1606019,39.9627959 29.3657009,40.1026533 C29.5755158,40.2336994 29.7744146,40.3827474 29.9510561,40.5052885 Z M40.5094934,29.9475427 C40.0145128,29.3502943 39.6548658,28.6528814 39.4553154,27.9033238 L39.4333416,27.8128177 C39.3969075,27.5222343 39.3440285,27.2145703 39.618489,27.0113745 C39.8833803,26.8151953 40.1603926,26.93965 40.4064289,27.0751611 C41.2434817,27.5995994 41.9279353,28.3348495 42.3911642,29.2071929 C42.7301807,29.6772238 42.7319768,30.3109901 42.3956299,30.7829346 C41.9719108,31.5446822 41.3953126,32.2106514 40.7020127,32.739057 C40.5170515,32.8713306 40.3116797,32.9724347 40.0940458,33.038358 C39.682922,33.1562923 39.3961278,32.9506159 39.421504,32.5240253 C39.4367287,32.174278 39.5149621,31.8301496 39.6524422,31.5081882 C39.890256,30.9849255 40.2032062,30.4951861 40.5094934,29.9475427 Z M37.4667524,22.5969872 C36.8770734,22.4321343 36.3121327,22.3030019 35.7694493,22.1110042 C35.4695817,21.9988731 35.1920334,21.8343436 34.9497537,21.625092 C34.5166561,21.2586026 34.6123487,20.8407294 35.1353264,20.6275404 C35.7006657,20.4141927 36.3122673,20.3536395 36.9084747,20.4519855 C37.5198696,20.5480095 38.1230433,20.6905495 38.7127409,20.8783635 C38.8893083,20.9475805 39.0310632,21.0842164 39.1067108,21.2581064 C39.5617235,22.2884999 39.6876949,23.4341705 39.4674365,24.5387932 C39.3944975,24.871901 39.3039794,25.2526361 38.8947695,25.3057207 C38.5099435,25.3553325 38.3142344,25.0311549 38.1394359,24.7499268 C37.7652006,24.088032 37.5359088,23.3541783 37.4667524,22.5969872 Z M22.5255943,37.4007237 C23.1034358,37.5582766 23.6500886,37.6771323 24.1737752,37.8614047 C24.4843412,37.975118 24.7730649,38.1413243 25.0273531,38.3527742 C25.4836296,38.7276268 25.4082096,39.1554931 24.8507826,39.362587 C24.5400374,39.4763982 24.2141984,39.5437449 23.8837912,39.5624517 C22.9603636,39.6195008 22.0367099,39.4544318 21.1902218,39.0810754 C21.0720243,39.0266505 20.9761437,38.933235 20.9186675,38.8165028 C20.4585739,37.7894888 20.3159975,36.6484117 20.509245,35.539785 C20.5615226,35.2987356 20.6599972,35.0700912 20.799229,34.866482 C20.859629,34.7590519 20.9661838,34.685457 21.0880512,34.6669993 C21.2099186,34.6485416 21.333492,34.687282 21.4230029,34.7720069 C21.5942414,34.904639 21.7407547,35.0664157 21.855817,35.2499103 C22.1968276,35.8324252 22.411749,36.4800255 22.4866793,37.150822 L22.5255943,37.4007237 Z M30.0419995,19.5143225 C29.431906,19.8321924 28.8582466,20.1606225 28.2580769,20.4298728 C27.9893211,20.5364091 27.7007096,20.583602 27.4120126,20.5682189 C27.2455106,20.5890702 27.0812819,20.5153148 26.9862725,20.3770183 C26.8912631,20.2387218 26.881343,20.0589848 26.9605562,19.9110751 C27.0626205,19.6192383 27.2112467,19.3458397 27.4006712,19.1014814 C28.0265976,18.3217488 28.845959,17.7196374 29.7771082,17.355146 C29.9174747,17.3032388 30.0716179,17.3022856 30.2126158,17.3524528 C31.1934262,17.7334312 32.0489772,18.3795796 32.6836821,19.218707 C32.8543388,19.4507525 32.9783816,19.7136797 33.0489443,19.9929346 C33.1050528,20.1396537 33.0763764,20.3053085 32.9742127,20.4246365 C32.8720489,20.5439645 32.7127752,20.5978368 32.55914,20.5650296 C32.0931677,20.501825 31.636923,20.3806362 31.201014,20.2042809 C30.7981545,20.0032478 30.4107547,19.7726297 30.0419995,19.5143225 Z M20.3735033,23.5802223 C20.4100826,22.7772372 20.5842687,21.9864918 20.8884712,21.2424433 C20.9468949,21.1035422 21.0514769,20.9890605 21.1845512,20.9183365 C22.2023892,20.4639843 23.3315209,20.3194351 24.431011,20.5027313 C24.6345537,20.5390876 24.8306558,20.6089489 25.0113335,20.7094708 C25.1770123,20.7730994 25.2949409,20.9218256 25.3191129,21.0976286 C25.343285,21.2734315 25.2698711,21.4484594 25.1275114,21.5544306 C24.9901534,21.7099754 24.8209285,21.8341458 24.6313275,21.9185104 C24.0410814,22.1287227 23.4422584,22.3210747 22.8352839,22.4750839 C22.6441273,22.4913693 22.4922466,22.6425127 22.4750544,22.8335647 C22.3396671,23.4136684 22.1533146,23.9827866 21.9671039,24.549566 C21.9020402,24.7022633 21.8127611,24.8434634 21.7027089,24.9677226 C21.5487501,25.1704931 21.3438971,25.3968647 21.0913395,25.2955149 C20.8726871,25.1940352 20.7018054,25.0118736 20.6145068,24.7872065 C20.505294,24.3911858 20.424751,23.9878141 20.3735033,23.5802223 Z M19.5229024,29.9600165 C19.8413816,30.5798805 20.17184,31.1638115 20.4406299,31.774958 C20.5399569,32.045982 20.5807123,32.3349761 20.5602102,32.6228946 C20.5746411,32.7628408 20.5160997,32.9003759 20.405229,32.987002 C20.2943582,33.0736281 20.1467325,33.0971764 20.014408,33.0493434 C19.7340794,32.9839668 19.4693884,32.8639817 19.2354702,32.6962491 C18.3864545,32.0584508 17.7323474,31.1963566 17.346782,30.2070124 C17.2985839,30.0861559 17.2943195,29.9522223 17.3347318,29.8285452 C17.7240933,28.807748 18.3972407,27.9195424 19.2748105,27.2686471 C19.4589805,27.1356074 19.6632805,27.0329326 19.8799421,26.9645268 C20.3048881,26.8298662 20.6005428,27.0321406 20.5687871,27.4774419 C20.5449374,27.8575087 20.4551359,28.2305289 20.3033996,28.5798162 C20.0790536,29.0752255 19.7698602,29.532221 19.5229024,29.9600165 Z M29.5709084,38.0042158 C29.5727513,38.6758888 29.127958,38.9631411 28.5141786,38.6734791 C27.9583108,38.3873245 27.5003744,37.941984 27.1988662,37.394345 C27.0879336,37.2129076 26.9986206,37.1414666 26.763075,37.2021348 C26.1934066,37.3672932 25.5892812,37.3726138 25.0167915,37.2175144 C24.7226962,37.130552 24.4366817,37.0063808 24.3612618,36.6710758 C24.3153175,36.3535052 24.4649547,36.0394794 24.7405589,35.8750899 C25.2189569,35.509011 25.7818564,35.2692907 26.3773275,35.1780441 C26.6094707,35.1320469 26.8429606,35.0926409 27.0752455,35.0471398 C27.6571994,35.0107146 28.2167922,35.2769708 28.5555745,35.7514857 C28.683519,35.9741009 28.8571125,36.1696423 28.9976034,36.3858789 C29.324911,36.8669534 29.5223912,37.4244044 29.5709084,38.0042158 Z M34.2701945,37.356711 C33.9570985,37.3308521 33.6459881,37.2849019 33.3387866,37.2191445 C33.1102874,37.126922 32.8495255,37.2291229 32.744571,37.4520365 C32.4456612,37.8313171 32.1161291,38.1854342 31.7592917,38.5108232 C31.6393799,38.6093888 31.5001905,38.6818108 31.3506489,38.7234452 C31.1487017,38.8364076 30.9003727,38.8261751 30.7084063,38.6969815 C30.5164399,38.5677879 30.4134841,38.3416052 30.4421363,38.1120152 C30.4523322,37.434845 30.6789891,36.7787074 31.0889473,36.2395949 C31.2178812,36.0172184 31.3631172,35.8046997 31.5234626,35.6037842 C31.8412949,35.2240657 32.3199831,35.0169735 32.8143911,35.0452971 C33.3186258,35.0826795 33.8148474,35.1924802 34.2877736,35.3713175 C34.700283,35.5288256 35.0809073,35.759619 35.4112755,36.0525584 C35.6081309,36.188416 35.7049629,36.4285807 35.6573854,36.662965 C35.6098079,36.8973494 35.4269937,37.0807639 35.192742,37.1291345 C34.8916593,37.229026 34.5831949,37.3051188 34.2701945,37.356711 Z M22.7465378,27.093234 C22.7421431,26.4091581 22.7053546,25.7936883 22.7469631,25.1834631 C22.727542,24.8158181 22.9577815,24.4810612 23.3080762,24.3676324 C23.7274224,24.2625972 23.9864303,24.5569369 24.203688,24.8536864 C24.5526866,25.4041815 24.7787751,26.0234916 24.8665187,26.6693366 C25.0041058,27.1251847 24.9503714,27.6173781 24.7176635,28.0328106 C24.5902003,28.2258866 24.4321965,28.3969628 24.2498331,28.5393471 C24.0170214,28.7440515 23.7603657,28.9199316 23.4854264,29.0631769 C23.075041,29.2528274 22.6511823,29.411854 22.2173224,29.5389541 C22.0351265,29.5769571 21.8463699,29.5694595 21.6677633,29.5171249 C21.504881,29.4950909 21.3606682,29.4006714 21.2753488,29.260202 C21.1900294,29.1197326 21.1727338,28.9482456 21.2282862,28.7935722 C21.3931617,28.2542052 21.7382827,27.7878082 22.2059101,27.4724099 C22.4047381,27.3109589 22.6261778,27.1768653 22.7465378,27.093234 Z M22.825502,33.051824 C22.360436,32.6185712 21.9394594,32.2552711 21.556689,31.8554 C21.4095668,31.6820342 21.3034657,31.4777095 21.2462906,31.2576486 C21.1672068,31.0708155 21.1904535,30.8563677 21.3077369,30.6908156 C21.4250203,30.5252636 21.6196353,30.4321874 21.8221474,30.4447947 C22.4794568,30.4323501 23.1227992,30.6352036 23.6540581,31.0224178 C23.9081042,31.1794037 24.1527228,31.3519819 24.3983338,31.5222922 C24.7969892,31.9263696 24.9847112,32.4930242 24.9061425,33.0551551 C24.8593898,33.3704352 24.7960025,33.683024 24.7162459,33.9916133 C24.5558902,34.4576122 24.3320351,34.8992769 24.0510051,35.304129 C23.6058573,35.881823 23.0323397,35.7421303 22.799346,35.0489825 C22.6343596,34.4797754 22.6240101,33.8768968 22.7693623,33.3023636 L22.825502,33.051824 Z M25.7827575,22.637598 C26.0858424,22.6620271 26.386637,22.7094124 26.6825515,22.779346 C26.9687078,22.8714822 27.0885007,22.7691402 27.2428848,22.5412803 C27.4719035,22.2231979 27.7283473,21.9257843 28.0092761,21.6524494 C28.145374,21.5252536 28.3010649,21.4207953 28.4703727,21.3430844 C28.7126297,21.1675874 29.0366399,21.1548691 29.2919113,21.3108367 C29.5287601,21.5085762 29.6323109,21.8239173 29.5587873,22.1235489 C29.4786582,22.7207447 29.2491713,23.2880846 28.8915618,23.7730704 C28.7520633,23.9768568 28.614266,24.1818244 28.4781698,24.3879733 C28.0908724,24.7938548 27.5334118,24.9910641 26.9770011,24.9190322 C26.6387455,24.8298018 26.2848956,24.7998221 25.9467109,24.7106626 C25.4379451,24.5991054 24.9710726,24.3460449 24.5999262,23.9806604 C24.1822103,23.5412416 24.265073,23.0708508 24.8288087,22.8555356 C25.1406384,22.7581916 25.4595894,22.6853246 25.7827575,22.637598 Z M37.8440648,30.438983 C38.7094094,30.4318956 38.9852876,30.8751416 38.6561759,31.5225757 C38.3603366,32.0610775 37.9186,32.5052366 37.3816923,32.8040485 C37.301859,32.8335978 37.2373685,32.8941694 37.2028853,32.97199 C37.168402,33.0498107 37.1668566,33.1382666 37.1986005,33.2172439 C37.3562063,33.7775041 37.3665582,34.3689483 37.2286551,34.9343793 C37.1969668,35.0541549 37.1514615,35.1698416 37.0930551,35.2791104 C37.0244913,35.4711454 36.8598437,35.6128806 36.6597269,35.6521368 C36.4596101,35.691393 36.2536073,35.6223669 36.1175577,35.4704702 C35.877315,35.2750203 35.6871858,35.0250714 35.562966,34.7413894 C35.3109201,34.1115503 35.1394431,33.4524036 35.0526055,32.779597 C34.992842,32.2271644 35.2758914,31.6941059 35.7670393,31.4341249 C36.0288117,31.2932274 36.2518109,31.0821646 36.5065658,30.9261 C36.9057765,30.6566641 37.3650633,30.4893918 37.8440648,30.438983 Z M32.967074,22.7503586 C33.5695829,22.7432712 34.1746436,22.7027312 34.7746008,22.740578 C35.1594976,22.7648877 35.5628242,22.9125183 35.640158,23.3636313 C35.7106161,23.7747005 35.4008556,24.0218382 35.0990341,24.2333262 C34.569049,24.5560049 33.9800293,24.7697712 33.3664311,24.8621204 C32.8795809,25.0106421 32.3529124,24.9504 31.9121872,24.6957791 C31.7392113,24.5736317 31.5854063,24.4263922 31.4558398,24.2589117 C31.3191728,24.0908777 31.1928839,23.9146648 31.0776769,23.7312548 C30.7027279,23.2318291 30.481083,22.6341814 30.4397262,22.0110718 C30.4255496,21.2945357 30.8780692,21.0100474 31.5197058,21.3361387 C32.0569306,21.634191 32.5019991,22.0740032 32.8063813,22.6076183 L32.957363,22.8381715 L32.967074,22.7503586 Z M37.3471721,25.8387641 C37.289473,26.2118449 37.2608361,26.5221313 37.1878262,26.8216448 C37.1437368,27.0025152 37.2157543,27.0626164 37.3405091,27.1668721 C37.7420636,27.5022478 38.1234872,27.8620752 38.5059031,28.2197054 C38.5676427,28.2897974 38.6162422,28.3704417 38.6493711,28.4577712 C38.8201631,28.7015892 38.836304,29.021638 38.6909088,29.2813979 C38.4984149,29.5240576 38.1823434,29.6326106 37.8813494,29.5594367 C37.2055951,29.4504812 36.5677211,29.1746198 36.0255511,28.7568594 C35.5909595,28.535777 35.2665554,28.1455645 35.1285925,27.6779445 C35.0830537,27.4423843 35.0744447,27.2011742 35.1030745,26.9629676 C35.1294211,26.6026949 35.1980832,26.2467745 35.307644,25.9025507 C35.46341,25.4891847 35.6628472,25.0936182 35.9025684,24.7225694 C36.0499688,24.4448874 36.3626985,24.2974735 36.6707318,24.3604742 C36.9563396,24.4455877 37.165838,24.689753 37.2065395,24.984945 C37.2791949,25.2836789 37.3082571,25.5928313 37.3471721,25.8387641 Z" id="collaborate"></path>
                        </g>
                    </g>
                </g>
            </g>
        </g>
    </g>
</svg>