<?xml version="1.0" encoding="UTF-8"?>
<svg width="19px" height="19px" viewBox="0 0 19 19" version="1.1" xmlns="http://www.w3.org/2000/svg" xmlns:xlink="http://www.w3.org/1999/xlink">
    <!-- Generator: Sketch 49.3 (51167) - http://www.bohemiancoding.com/sketch -->
    <title>g+</title>
    <desc>Created with Sketch.</desc>
    <defs></defs>
    <g id="Symbols" stroke="none" stroke-width="1" fill="none" fill-rule="evenodd">
        <g id="Footer" transform="translate(-1469.000000, -73.000000)" fill="#000000">
            <g transform="translate(240.000000, 0.000000)" id="Group-14">
                <g transform="translate(60.000000, 60.000000)">
                    <g id="Social" transform="translate(986.000000, 0.000000)">
                        <g id="Google-+-Copy-4" transform="translate(169.492624, 0.000000)">
                            <path d="M23.1836735,21.1428571 L23.1836735,24.4 L28.3921283,24.4 C28.1822157,25.7978571 26.8177843,28.4985714 23.1836735,28.4985714 C20.048105,28.4985714 17.4897959,25.8114286 17.4897959,22.5 C17.4897959,19.1885714 20.048105,16.5014286 23.1836735,16.5014286 C24.96793,16.5014286 26.1618076,17.2885714 26.8440233,17.9671429 L29.3367347,15.4835714 C27.7361516,13.9364286 25.6632653,13 23.1836735,13 C18.106414,13 14,17.2478571 14,22.5 C14,27.7521429 18.106414,32 23.1836735,32 C28.483965,32 32,28.1457143 32,22.7171429 C32,22.0928571 31.9344023,21.6178571 31.8556851,21.1428571 L23.1836735,21.1428571 L23.1836735,21.1428571 Z" id="g+"></path>
                        </g>
                    </g>
                </g>
            </g>
        </g>
    </g>
</svg>