<?xml version="1.0" encoding="UTF-8"?>
<svg width="30px" height="30px" viewBox="0 0 30 30" version="1.1" xmlns="http://www.w3.org/2000/svg" xmlns:xlink="http://www.w3.org/1999/xlink">
    <!-- Generator: Sketch 49.3 (51167) - http://www.bohemiancoding.com/sketch -->
    <title>getTrading</title>
    <desc>Created with Sketch.</desc>
    <defs></defs>
    <g id="Page-1" stroke="none" stroke-width="1" fill="none" fill-rule="evenodd">
        <g id="Info-Center_Trading" transform="translate(-418.000000, -164.000000)" fill="#FFFFFF" fill-rule="nonzero">
            <g id="Group-4" transform="translate(0.000000, 109.000000)">
                <g id="Group-34" transform="translate(301.000000, 0.000000)">
                    <g id="Group-6">
                        <g id="Group" transform="translate(102.000000, 40.000000)">
                            <path d="M29.9431128,27.7560493 C28.0504746,27.7560493 26.5161882,26.2217616 26.5161882,24.3291218 C26.5161882,22.4364821 28.0504746,20.9021944 29.9431128,20.9021944 C31.835751,20.9021944 33.3700373,22.4364821 33.3700373,24.3291218 C33.3700373,26.2217616 31.835751,27.7560493 29.9431128,27.7560493 Z M32.4324547,18.4488637 C33.0900592,17.5356694 34.6933466,17.566041 36.0134973,18.5167007 C37.3336481,19.4673603 37.870748,20.9783125 37.2131436,21.8915069 C36.5555391,22.8047013 34.9522517,22.7743296 33.6321009,21.82367 C32.3119501,20.8730103 31.7748502,19.3620581 32.4324547,18.4488637 Z M37.5771093,19.0286192 C36.688559,18.4207407 36.2283554,17.5474826 36.5482859,17.0791493 C36.8696006,16.6101251 37.8493625,16.7227577 38.7393684,17.3303455 C39.6274097,17.9377328 40.0875777,18.8115364 39.7666981,19.2803243 C39.4468389,19.7486032 38.466568,19.6355154 37.5771093,19.0286192 Z M29.7238119,17.5474826 C28.3912766,17.529553 27.3192851,16.9432589 27.3276495,16.241423 C27.3384148,15.5376776 28.426154,14.9827879 29.7601067,15.0004083 C31.0921318,15.0190471 32.1646335,15.6050863 32.1552869,16.3083953 C32.1455039,17.0099768 31.0568192,17.5653756 29.7238119,17.5474826 Z M22.6388303,21.921047 C21.9809277,21.0072928 22.5176512,19.4956976 23.8384021,18.5461387 C25.1581357,17.5953068 26.7614674,17.5643574 27.4198803,18.4779115 C28.0772727,19.391702 27.5405861,20.9020427 26.2198708,21.8533654 C24.9000653,22.8034335 23.2962603,22.8343286 22.6388303,21.921047 Z M22.3410469,19.1247771 C21.4520233,19.7316734 20.4717887,19.8447605 20.1518933,19.3764822 C19.8310519,18.9072033 20.2912567,18.0338908 21.1797338,17.4262487 C22.0687574,16.8189157 23.0485194,16.706083 23.3703424,17.1750525 C23.6902378,17.6436402 23.2300336,18.5166985 22.3410469,19.1247771 Z M24.3287659,33.3705719 C22.4360283,33.3705719 20.9016613,31.8362036 20.9016613,29.9434644 C20.9016613,28.0507253 22.4360283,26.516357 24.3287659,26.516357 C26.2215035,26.516357 27.7558705,28.0507253 27.7558705,29.9434644 C27.7558705,31.8362036 26.2215035,33.3705719 24.3287659,33.3705719 Z M18.4483374,32.4324041 C19.3616122,31.7747244 20.8726999,32.3118328 21.8234462,33.6320692 C22.7741925,34.9523056 22.8045692,36.5557234 21.8912944,37.2134031 C20.9780196,37.8710828 19.4669319,37.3339744 18.5161856,36.013738 C17.5654393,34.6935016 17.5350626,33.0900838 18.4483374,32.4324041 Z M17.1012839,36.5266786 C17.5693076,36.2068192 18.4426194,36.6664964 19.0504427,37.555284 C19.6573938,38.4447613 19.7702441,39.4249796 19.3021482,39.7448924 C18.8331063,40.0657163 17.9598667,39.6055302 17.3524799,38.7172514 C16.7445834,37.8277716 16.632242,36.8477544 17.1012839,36.5266786 Z M17.5472684,29.7243084 C17.5653799,31.0570624 17.0099994,32.1459846 16.3084185,32.1557855 C15.6049102,32.1648776 15.0186169,31.0923763 15.0004327,29.760331 C14.9822849,28.4265961 15.5371924,27.3389094 16.2412462,27.3281084 C16.9427545,27.3195252 17.5290841,28.3915188 17.5472684,29.7243084 Z M18.477424,27.4201026 C17.5643614,26.7619628 17.5948381,25.1586463 18.5456508,23.8386036 C19.4954456,22.5181239 21.0065484,21.9813821 21.9205563,22.6390487 C22.8341278,23.2964792 22.803215,24.9003225 21.8533843,26.2202932 C20.9015528,27.5408264 19.3914685,28.077787 18.477424,27.4201026 Z M19.1245617,22.3414833 C18.5161926,23.2305248 17.6429171,23.6902026 17.1748571,23.3703432 C16.7058514,23.0492108 16.8186659,22.0689932 17.4260893,21.1799695 C18.0334399,20.291491 18.9067157,19.8315046 19.3757576,20.1521274 C19.8442899,20.4719875 19.7309663,21.4522592 19.1245617,22.3414833 Z M32.4795827,38.0944446 C31.1412303,39.4328529 28.9717152,39.4328529 27.6332889,38.094699 C26.2949352,36.7562704 26.2944263,34.5862993 27.6328525,33.247891 C28.9712063,31.9097181 31.1421756,31.9090081 32.4806019,33.2473808 C33.8185179,34.5857904 33.8175,36.7562704 32.4795827,38.0944446 Z M27.5674005,41.5518618 C26.9096354,42.4650612 25.3062203,42.4345115 23.9860727,41.483627 C22.6659251,40.5327426 22.1289581,39.0216041 22.7867233,38.1084047 C23.4444885,37.1952053 25.0479035,37.225755 26.3680511,38.1766395 C27.6881987,39.1275239 28.2251657,40.6386624 27.5674005,41.5518618 Z M22.4445507,40.9493205 C23.3331009,41.557218 23.7932695,42.4305315 23.4734098,42.8990464 C23.1520232,43.3678336 22.1722612,43.2552542 21.2827656,42.6476136 C20.3942878,42.0402071 19.9340473,41.1666571 20.2549244,40.6976332 C20.5747836,40.2293549 21.555055,40.3424433 22.4445507,40.9493205 Z M30.2752271,42.4525684 C31.6082345,42.4707172 32.6802629,43.0570103 32.671462,43.7588475 C32.6606242,44.4626467 31.5734308,45.0172814 30.2394412,44.9995882 C28.9074518,44.9812054 27.8349513,44.3949122 27.844298,43.6918739 C27.8536077,42.9900393 28.9427656,42.4346946 30.2752271,42.4525684 Z M37.360717,38.0792222 C38.0186197,38.993014 37.4818974,40.5046086 36.1611452,41.4539318 C34.8409045,42.4050006 33.2380805,42.4356412 32.5801779,41.5223584 C31.9222383,40.6086048 32.4589987,39.0980103 33.7792407,38.1469414 C35.0994827,37.1966181 36.7032877,37.1657231 37.360717,38.0792222 Z M37.6432991,40.8605465 C38.532796,40.2538679 39.5130669,40.1407795 39.8329261,40.6091137 C40.1532941,41.0781375 39.6935995,41.9516495 38.8050848,42.5590381 C37.9160994,43.1664242 36.9358642,43.2792581 36.6150227,42.8102343 C36.2950898,42.341956 36.7543137,41.4686426 37.6432991,40.8605465 Z M35.6708101,33.4836718 C33.7780654,33.4836718 32.2436927,31.9492978 32.2436927,30.0565516 C32.2436927,28.1638054 33.7780654,26.6294314 35.6708101,26.6294314 C37.5635547,26.6294314 39.0979274,28.1638054 39.0979274,30.0565516 C39.0979274,31.9492978 37.5635547,33.4836718 35.6708101,33.4836718 Z M41.4828458,23.9863131 C42.4341684,25.3063017 42.4650812,26.9096182 41.5515472,27.567557 C40.6380463,28.2254793 39.1269797,27.6879729 38.1761305,26.3682578 C37.2253195,25.047759 37.1949156,23.4441887 38.1084139,22.7867588 C39.0219504,22.1288194 40.5335616,22.6655796 41.4828458,23.9863131 Z M42.9208494,23.4515174 C42.4523527,23.7711402 41.5790043,23.311463 40.9711811,22.42273 C40.3643044,21.5332515 40.2514172,20.5529798 40.7194762,20.2331019 C41.1885175,19.9124784 42.0618302,20.3724292 42.6691801,21.2606888 C43.2770415,22.1501858 43.3898907,23.1301846 42.9208494,23.4515174 Z M43.6916393,27.8445207 C44.3946745,27.8351741 44.9809672,28.9076754 44.9995892,30.239666 C45.0172646,31.5736745 44.4623936,32.6611424 43.7583381,32.6718886 C43.0567584,32.6807263 42.4700281,31.6087339 42.4523527,30.2757432 C42.4346417,28.9430083 42.9900216,27.8540671 43.6916393,27.8445207 Z M38.0789923,37.3609489 C37.1654939,36.7037735 37.1963686,35.0999468 38.1467089,33.7799595 C39.0975225,32.4594797 40.6081157,31.9224835 41.5221256,32.58015 C42.4356595,33.2383434 42.4042734,34.8414041 41.4534242,36.161394 C40.5041018,37.4821269 38.9925263,38.0188877 38.0789923,37.3609489 Z M40.8602939,37.644058 C41.4681528,36.7548148 42.3414299,36.2951376 42.8099979,36.614997 C43.2790035,36.9363298 43.16619,37.9163471 42.5587663,38.8053179 C41.9514163,39.6938486 41.0776303,40.1540373 40.6086247,39.8334145 C40.14053,39.5135347 40.2534173,38.5330263 40.8602939,37.644058 Z" id="getTrading"></path>
                        </g>
                    </g>
                </g>
            </g>
        </g>
    </g>
</svg>