<?xml version="1.0" encoding="UTF-8"?>
<svg width="24px" height="24px" viewBox="0 0 24 24" version="1.1" xmlns="http://www.w3.org/2000/svg" xmlns:xlink="http://www.w3.org/1999/xlink">
    <!-- Generator: Sketch 49.3 (51167) - http://www.bohemiancoding.com/sketch -->
    <title>in</title>
    <desc>Created with Sketch.</desc>
    <defs></defs>
    <g id="Symbols" stroke="none" stroke-width="1" fill="none" fill-rule="evenodd">
        <g id="Footer" transform="translate(-1406.000000, -71.000000)" fill="#000000">
            <g transform="translate(240.000000, 0.000000)" id="Group-14">
                <g transform="translate(60.000000, 60.000000)">
                    <g id="Social" transform="translate(986.000000, 0.000000)">
                        <g id="Instagram-Copy-4" transform="translate(109.328416, 0.000000)">
                            <path d="M22.6503449,11.0983607 C19.5145368,11.0983607 19.1209973,11.1120657 17.8893819,11.1680882 C16.6601721,11.224351 15.8211342,11.4188667 15.086976,11.7042686 C14.3275601,11.9990476 13.6833675,12.3933687 13.0415805,13.0351021 C12.3993124,13.6765952 12.0048106,14.3204926 11.7089342,15.0793202 C11.4226799,15.8133824 11.2278345,16.6522764 11.172508,17.8804422 C11.1174221,19.1114933 11.1029891,19.505093 11.1029891,22.6394645 C11.1029891,25.7738359 11.116941,26.165993 11.1727486,27.3970441 C11.2292778,28.6256908 11.4238827,29.4643443 11.7091748,30.1981662 C12.0043295,30.9572342 12.3988313,31.6011316 13.0408589,32.2426246 C13.6824053,32.8845985 14.3265979,33.2798813 15.0855327,33.5746604 C15.820172,33.8600622 16.6594505,34.0545779 17.8884197,34.1108408 C19.1200351,34.1668632 19.5133341,34.1805683 22.6489016,34.1805683 C25.7849502,34.1805683 26.177287,34.1668632 27.4089023,34.1108408 C28.6381122,34.0545779 29.4781123,33.8600622 30.2127516,33.5746604 C30.971927,33.2798813 31.6151573,32.8845985 32.2567038,32.2426246 C32.8989719,31.6011316 33.2934737,30.9572342 33.5893501,30.1984066 C33.8731989,29.4643443 34.0680443,28.6254503 34.1257763,27.3972845 C34.1811027,26.1662335 34.1955357,25.7738359 34.1955357,22.6394645 C34.1955357,19.505093 34.1811027,19.1117337 34.1257763,17.8806827 C34.0680443,16.652036 33.8731989,15.8133824 33.5893501,15.0795606 C33.2934737,14.3204926 32.8989719,13.6765952 32.2567038,13.0351021 C31.6144357,12.3931282 30.9721675,11.9988072 30.2120299,11.7042686 C29.4759473,11.4188667 28.6364283,11.224351 27.4072185,11.1680882 C26.1756032,11.1120657 25.7835069,11.0983607 22.6467366,11.0983607 L22.6503449,11.0983607 Z M21.6145372,13.1781637 C21.9219599,13.1776829 22.264984,13.1781637 22.6503449,13.1781637 C25.733232,13.1781637 26.0986272,13.189224 27.3160501,13.2445251 C28.4418235,13.2959792 29.0528201,13.484003 29.4598305,13.6419719 C29.9986622,13.8511544 30.3828203,14.1012116 30.7867036,14.5051502 C31.1908273,14.9090889 31.4409992,15.2937923 31.6507587,15.8323772 C31.8087999,16.2387202 31.9971505,16.849437 32.0483876,17.9746946 C32.1037141,19.1913193 32.1157416,19.5567876 32.1157416,22.6368196 C32.1157416,25.7168517 32.1037141,26.08232 32.0483876,27.2989447 C31.9969099,28.4242023 31.8087999,29.0349191 31.6507587,29.4412621 C31.4414803,29.979847 31.1908273,30.3633482 30.7867036,30.7670464 C30.3825798,31.170985 29.9989028,31.4210423 29.4598305,31.6302248 C29.0533012,31.788915 28.4418235,31.9764579 27.3160501,32.027912 C26.0988678,32.0832131 25.733232,32.0952351 22.6503449,32.0952351 C19.5672173,32.0952351 19.201822,32.0832131 17.9846397,32.027912 C16.8588663,31.975977 16.2478697,31.7879532 15.8406187,31.6299844 C15.301787,31.4208019 14.9169073,31.1707446 14.5127835,30.766806 C14.1086597,30.3628673 13.8584878,29.9791256 13.6487284,29.4403004 C13.4906871,29.0339573 13.3023366,28.4232406 13.2510994,27.297983 C13.195773,26.0813583 13.1847077,25.71589 13.1847077,22.6339344 C13.1847077,19.5519788 13.195773,19.188434 13.2510994,17.9718093 C13.3025771,16.8465517 13.4906871,16.2358349 13.6487284,15.829011 C13.8580067,15.2904262 14.1086597,14.9057227 14.5127835,14.5017841 C14.9169073,14.0978455 15.301787,13.8477882 15.8406187,13.6381248 C16.2476291,13.4794346 16.8588663,13.2918917 17.9846397,13.2401972 C19.0497945,13.1921092 19.4625781,13.1776829 21.6145372,13.1752785 L21.6145372,13.1781637 Z M28.8137136,15.0944679 C28.048765,15.0944679 27.4281463,15.7140809 27.4281463,16.4789194 C27.4281463,17.2435176 28.048765,17.8638519 28.8137136,17.8638519 C29.5786621,17.8638519 30.1992808,17.2435176 30.1992808,16.4789194 C30.1992808,15.7143213 29.5786621,15.093987 28.8137136,15.093987 L28.8137136,15.0944679 Z M22.6503449,16.7126268 C19.3757396,16.7126268 16.7207907,19.3663593 16.7207907,22.6394645 C16.7207907,25.9125696 19.3757396,28.5651 22.6503449,28.5651 C25.9249502,28.5651 28.5789369,25.9125696 28.5789369,22.6394645 C28.5789369,19.3663593 25.9247097,16.7126268 22.6501043,16.7126268 L22.6503449,16.7126268 Z M22.6503449,18.7924299 C24.7758435,18.7924299 26.4991428,20.5146992 26.4991428,22.6394645 C26.4991428,24.7639893 24.7758435,26.4864991 22.6503449,26.4864991 C20.5246057,26.4864991 18.801547,24.7639893 18.801547,22.6394645 C18.801547,20.5146992 20.5246057,18.7924299 22.6503449,18.7924299 L22.6503449,18.7924299 Z" id="in"></path>
                        </g>
                    </g>
                </g>
            </g>
        </g>
    </g>
</svg>