<?xml version="1.0" encoding="UTF-8"?>
<svg width="19px" height="18px" viewBox="0 0 19 18" version="1.1" xmlns="http://www.w3.org/2000/svg" xmlns:xlink="http://www.w3.org/1999/xlink">
    <!-- Generator: Sketch 49.3 (51167) - http://www.bohemiancoding.com/sketch -->
    <title>ln</title>
    <desc>Created with Sketch.</desc>
    <defs></defs>
    <g id="Symbols" stroke="none" stroke-width="1" fill="none" fill-rule="evenodd">
        <g id="Footer" transform="translate(-1348.000000, -74.000000)" fill="#000000">
            <g transform="translate(240.000000, 0.000000)" id="Group-14">
                <g transform="translate(60.000000, 60.000000)">
                    <g id="Social" transform="translate(986.000000, 0.000000)">
                        <g id="LinkedIN-Copy-4" transform="translate(49.164208, 0.000000)">
                            <path d="M17.0862337,19.8547195 L17.0862337,31.9996776 L13.2281387,31.9996776 L13.2281387,19.8547195 L17.0862337,19.8547195 Z M17.3403376,16.0977941 C17.3403376,17.2639338 16.502519,18.197039 15.1572633,18.197039 L15.1326079,18.197039 C13.8373562,18.197039 13,17.2639338 13,16.0977941 C13,14.9069886 13.8628591,14 15.1826891,14 C16.502519,14 17.315297,14.9069886 17.3403376,16.0977941 Z M31,25.0361298 L30.9998459,31.9996776 L27.1419051,31.9996776 L27.1419051,25.5021182 C27.1419051,23.8700707 26.5836162,22.756406 25.1869695,22.756406 C24.1210893,22.756406 23.4862149,23.5071785 23.2073786,24.232318 C23.1053672,24.4921946 23.0803267,24.8542807 23.0803267,25.2172535 L23.0803267,32 L19.2217694,32 C19.2217694,32 19.272621,20.994662 19.2217694,19.855042 L23.0803267,19.855042 L23.0803267,21.5752734 C23.5923868,20.7483274 24.5094876,19.5695324 26.5578822,19.5695324 C29.0966865,19.5695324 31,21.305724 31,25.0361298 Z" id="ln"></path>
                        </g>
                    </g>
                </g>
            </g>
        </g>
    </g>
</svg>