<?xml version="1.0" encoding="UTF-8"?>
<svg width="18px" height="22px" viewBox="0 0 18 22" version="1.1" xmlns="http://www.w3.org/2000/svg" xmlns:xlink="http://www.w3.org/1999/xlink">
    <!-- Generator: Sketch 49.3 (51167) - http://www.bohemiancoding.com/sketch -->
    <title>pi</title>
    <desc>Created with Sketch.</desc>
    <defs></defs>
    <g id="Symbols" stroke="none" stroke-width="1" fill="none" fill-rule="evenodd">
        <g id="Footer" transform="translate(-1590.000000, -73.000000)" fill="#000000" fill-rule="nonzero">
            <g transform="translate(240.000000, 0.000000)" id="Group-14">
                <g transform="translate(60.000000, 60.000000)">
                    <g id="Social" transform="translate(986.000000, 0.000000)">
                        <g id="Pinterest-Copy-4" transform="translate(289.821040, 0.000000)">
                            <path d="M15,20.8930288 C15,19.9411058 15.1660156,19.0442708 15.4980469,18.202524 C15.8300781,17.3607772 16.2882813,16.6270032 16.8726562,16.0012019 C17.4570312,15.3754006 18.1299479,14.8333333 18.8914062,14.375 C19.6528646,13.9166667 20.471875,13.5729167 21.3484375,13.34375 C22.225,13.1145833 23.1192708,13 24.03125,13 C25.4302083,13 26.7317708,13.2930689 27.9359375,13.8792067 C29.1401042,14.4653446 30.1184896,15.318109 30.8710938,16.4375 C31.6236979,17.556891 32,18.8217147 32,20.2319712 C32,21.078125 31.9158854,21.9066506 31.7476562,22.7175481 C31.5794271,23.5284455 31.3138021,24.3084936 30.9507812,25.0576923 C30.5877604,25.806891 30.1450521,26.4657452 29.6226562,27.0342548 C29.1002604,27.6027644 28.4583333,28.0566907 27.696875,28.3960337 C26.9354167,28.7353766 26.0986979,28.9050481 25.1867188,28.9050481 C24.5846354,28.9050481 23.9869792,28.7640224 23.39375,28.4819712 C22.8005208,28.1999199 22.3755208,27.8120994 22.11875,27.3185096 C22.0302083,27.6622596 21.90625,28.1580529 21.746875,28.8058894 C21.5875,29.453726 21.4834635,29.8723958 21.4347656,30.061899 C21.3860677,30.2514022 21.2953125,30.5643029 21.1625,31.000601 C21.0296875,31.436899 20.9145833,31.7497997 20.8171875,31.9393029 C20.7197917,32.1288061 20.578125,32.4042468 20.3921875,32.765625 C20.20625,33.1270032 20.0026042,33.4685497 19.78125,33.7902644 C19.5598958,34.1119792 19.2854167,34.4931891 18.9578125,34.9338942 L18.771875,35 L18.6523438,34.8677885 C18.5195312,33.4839744 18.453125,32.6554487 18.453125,32.3822115 C18.453125,31.5713141 18.5483073,30.661258 18.7386719,29.6520433 C18.9290365,28.6428285 19.2234375,27.3758013 19.621875,25.8509615 C20.0203125,24.3261218 20.2505208,23.4314904 20.3125,23.1670673 C20.0291667,22.5941506 19.8875,21.849359 19.8875,20.9326923 C19.8875,20.2011218 20.1177083,19.5136218 20.578125,18.8701923 C21.0385417,18.2267628 21.6229167,17.9050481 22.33125,17.9050481 C22.8713542,17.9050481 23.2919271,18.0835337 23.5929688,18.4405048 C23.8940104,18.797476 24.0445312,19.2491987 24.0445312,19.7956731 C24.0445312,20.3774038 23.8497396,21.2191506 23.4601563,22.3209135 C23.0705729,23.4226763 22.8757812,24.2467949 22.8757812,24.7932692 C22.8757812,25.3485577 23.075,25.8090946 23.4734375,26.1748798 C23.871875,26.5406651 24.3544271,26.7235577 24.9210938,26.7235577 C25.4080729,26.7235577 25.8596354,26.6133814 26.2757813,26.3930288 C26.6919271,26.1726763 27.0394531,25.8729968 27.3183594,25.4939904 C27.5972656,25.114984 27.8451823,24.6963141 28.0621094,24.2379808 C28.2790365,23.7796474 28.4472656,23.2926683 28.5667969,22.7770433 C28.6863281,22.2614183 28.7748698,21.7722356 28.8324219,21.3094952 C28.889974,20.8467548 28.91875,20.4082532 28.91875,19.9939904 C28.91875,18.4691506 28.4339844,17.2814503 27.4644531,16.4308894 C26.4949219,15.5803285 25.2309896,15.1550481 23.6726562,15.1550481 C21.9018229,15.1550481 20.4231771,15.7257612 19.2367188,16.8671875 C18.0502604,18.0086138 17.4570312,19.4563301 17.4570312,21.2103365 C17.4570312,21.5981571 17.5123698,21.9727564 17.6230469,22.3341346 C17.733724,22.6955128 17.8532552,22.9819712 17.9816406,23.1935096 C18.110026,23.4050481 18.2295573,23.6055689 18.3402344,23.7950721 C18.4509115,23.9845753 18.50625,24.1189904 18.50625,24.1983173 C18.50625,24.4451122 18.4398438,24.7668269 18.3070313,25.1634615 C18.1742188,25.5600962 18.0104167,25.7584135 17.815625,25.7584135 C17.7979167,25.7584135 17.7226562,25.7451923 17.5898438,25.71875 C17.1382812,25.5865385 16.7376302,25.3397436 16.3878906,24.9783654 C16.038151,24.6169872 15.768099,24.2005208 15.5777344,23.7289663 C15.3873698,23.2574119 15.2434896,22.7814503 15.1460938,22.3010817 C15.0486979,21.8207131 15,21.3513622 15,20.8930288 Z" id="pi"></path>
                        </g>
                    </g>
                </g>
            </g>
        </g>
    </g>
</svg>