<?xml version="1.0" encoding="UTF-8"?>
<svg width="29px" height="29px" viewBox="0 0 29 29" version="1.1" xmlns="http://www.w3.org/2000/svg" xmlns:xlink="http://www.w3.org/1999/xlink">
    <!-- Generator: Sketch 49.3 (51167) - http://www.bohemiancoding.com/sketch -->
    <title>pipsqueaks</title>
    <desc>Created with Sketch.</desc>
    <defs></defs>
    <g id="Page-1" stroke="none" stroke-width="1" fill="none" fill-rule="evenodd">
        <g id="Info-Center_Trading" transform="translate(-1474.000000, -165.000000)" fill="#F40830" fill-rule="nonzero">
            <g id="Group-4" transform="translate(0.000000, 109.000000)">
                <g id="Group-34" transform="translate(301.000000, 0.000000)">
                    <g id="Group-6" transform="translate(1055.000000, 0.000000)">
                        <g id="Group" transform="translate(102.000000, 40.000000)">
                            <path d="M30.1350016,31.691482 C28.8892396,32.9329678 27.7367433,34.0861671 26.5791839,35.2340878 C25.6515701,36.1785733 24.3773724,36.7107865 23.0470508,36.7094066 C21.7167291,36.7080267 20.4436597,36.1731714 19.5180451,35.2267636 C18.4097833,34.123426 17.298457,33.0231017 16.1840663,31.9257906 L16,31.7316662 C16.2531495,31.495906 16.5072983,31.2697794 16.749589,31.0311159 C17.6671448,30.1281052 18.5824357,29.2228511 19.4954615,28.3153535 C20.4218755,27.355752 21.7034388,26.812025 23.0439114,26.809858 C24.3843839,26.8076909 25.6677324,27.3472713 26.5973041,28.3038723 C27.7083194,29.4043946 28.8200454,30.5041251 29.932482,31.6030637 C29.9787151,31.6487905 30.0303443,31.6888427 30.1110856,31.7595114 C30.6350385,31.2342801 31.1503309,30.7148554 31.6687544,30.1986639 C32.324345,29.5460179 32.9788697,28.8921842 33.6406557,28.2455426 C34.5687816,27.322575 35.8313452,26.8060694 37.1465333,26.8113134 C38.4617213,26.8165575 39.7200456,27.3431148 40.6406389,28.2734538 C41.7381086,29.3602514 42.8363554,30.4463012 43.9353795,31.5316032 C44.0025974,31.5981149 44.0663511,31.6680578 44.1943248,31.8021369 C44.0048624,31.9647871 43.8092045,32.1140425 43.635464,32.2850726 C42.6028806,33.3017514 41.5794238,34.3277339 40.5448418,35.3424992 C38.634772,37.1601472 35.615864,37.1576412 33.7088729,35.3368246 C32.5934163,34.2546898 31.4968126,33.1527599 30.3957456,32.0560427 C30.2994459,31.9413821 30.2122698,31.8194964 30.1350016,31.691482 Z M30.0855042,16 C31.3451894,17.2325119 32.6292569,18.4061663 33.8161283,19.6694926 C35.6080443,21.5702844 35.5453561,24.5388991 33.6747643,26.3638158 C32.5431194,27.5242734 31.3743682,28.6492977 30.2217386,29.7896302 L30.0888351,29.8967879 C29.5241119,29.3325602 28.9627196,28.7765145 28.406257,28.215652 C27.6674602,27.4712884 26.8706389,26.7731795 26.2078536,25.967319 C24.6146672,24.0552756 24.7559176,21.2555412 26.533617,19.5103396 C27.6702582,18.354171 28.8353454,17.2254516 29.9880417,16.0847892 L30.0855042,16 Z M30.0803746,44.7466463 C29.5379241,44.2043472 28.9936527,43.6600906 28.4475604,43.1138764 C27.9560507,42.6209773 27.4356952,42.1524921 26.9810254,41.6281186 C25.5318541,39.9644202 25.6679407,37.4640927 27.2892905,35.9643471 C28.9106403,34.4646015 31.4384098,34.5008669 33.0152239,36.0464961 C34.5920379,37.5921252 34.654953,40.0953078 33.1577398,41.7167349 C32.1978369,42.7369108 31.1749131,43.6988231 30.179436,44.6860071 L30.0803746,44.7466463 Z" id="pipsqueaks"></path>
                        </g>
                    </g>
                </g>
            </g>
        </g>
    </g>
</svg>