<?xml version="1.0" encoding="UTF-8"?>
<svg width="22px" height="18px" viewBox="0 0 22 18" version="1.1" xmlns="http://www.w3.org/2000/svg" xmlns:xlink="http://www.w3.org/1999/xlink">
    <!-- Generator: Sketch 49.3 (51167) - http://www.bohemiancoding.com/sketch -->
    <title>tw</title>
    <desc>Created with Sketch.</desc>
    <defs></defs>
    <g id="Symbols" stroke="none" stroke-width="1" fill="none" fill-rule="evenodd">
        <g id="Footer" transform="translate(-1528.000000, -74.000000)" fill="#000000">
            <g transform="translate(240.000000, 0.000000)" id="Group-14">
                <g transform="translate(60.000000, 60.000000)">
                    <g id="Social" transform="translate(986.000000, 0.000000)">
                        <g id="Twitter-Copy-4" transform="translate(229.656832, 0.000000)">
                            <path d="M22.7225115,19.3100415 L22.7679411,20.0588117 L22.0107805,19.9671255 C19.254716,19.615662 16.8469454,18.4237422 14.8026118,16.4219282 L13.8031599,15.4286617 L13.5457253,16.1621508 C13.0005696,17.7972203 13.3488635,19.5239759 14.4846044,20.6853336 C15.0903328,21.3271366 14.9540439,21.4188227 13.9091623,21.0367972 C13.5457253,20.914549 13.2277178,20.8228628 13.1974314,20.8687059 C13.0914289,20.9756731 13.454866,22.3662462 13.742587,22.916363 C14.1363105,23.6804141 14.9389007,24.4291843 15.817207,24.8723339 L16.5592244,25.2237975 L15.6809181,25.2390785 C14.8328982,25.2390785 14.8026118,25.2543595 14.8934711,25.575261 C15.1963353,26.5685275 16.392649,27.6229181 17.7252516,28.0813488 L18.6641308,28.4022503 L17.8463973,28.891243 C16.6349404,29.5941701 15.2114785,29.9914767 13.7880166,30.0220387 C13.1065721,30.0373197 12.5462733,30.0984438 12.5462733,30.1442869 C12.5462733,30.2970971 14.3937451,31.1528344 15.4689131,31.4890169 C18.6944172,32.4822834 22.5256497,32.0544148 25.4028599,30.3582212 C27.4471935,29.1510204 29.491527,26.7518998 30.4455494,24.4291843 C30.9604185,23.1914214 31.4752877,20.92983 31.4752877,19.8448774 C31.4752877,19.1419503 31.5207174,19.0502642 32.3687372,18.2098079 C32.8684632,17.7208151 33.3379028,17.1859793 33.428762,17.0331691 C33.5801941,16.7428297 33.5650509,16.7428297 32.7927471,17.0026071 C31.5055742,17.4610378 31.3238556,17.3999137 31.9598705,16.7122676 C32.4293101,16.2232749 32.9896089,15.3369755 32.9896089,15.0771982 C32.9896089,15.0313551 32.7624607,15.1077602 32.5050261,15.2452894 C32.2324483,15.3980996 31.6267199,15.627315 31.1724235,15.7648442 L30.3546901,16.0246216 L29.6126727,15.5203478 C29.203806,15.2452894 28.628364,14.9396689 28.3254997,14.8479828 C27.5531959,14.6340485 26.3720254,14.6646105 25.6754377,14.9091069 C23.7825363,15.5967529 22.5862226,17.3693516 22.7225115,19.3100415 Z" id="tw"></path>
                        </g>
                    </g>
                </g>
            </g>
        </g>
    </g>
</svg>